# xmcd CD database file
#
# Track frame offsets:
#	150
#	17661
#	49548
#	62296
#	71436
#	85327
#	106539
#	120357
#	129039
#	141829
#	158072
#
# Disc length: 2279 seconds
#
# Revision: 0
# Processed by: cddbd v1.5.2PL0 Copyright (c) Steve Scherf et al.
# Submitted via: CDex 1.70beta2
#
DISCID=7808e50b
DTITLE=Thelonious Monk - Mixed Tape for Brian July 2006
DYEAR=2006
DGENRE=Jazz
TTITLE0='Round Midnight
TTITLE1=April in Paris
TTITLE2=Bye-Ya
TTITLE3=I Should Care
TTITLE4=Just a Gigolo
TTITLE5=Mood Indigo
TTITLE6=Nice Work if You Can Get it
TTITLE7=North of the Sunset
TTITLE8=Reflections
TTITLE9=These Foolish Things
TTITLE10=Trinkle, Tinkle
EXTD=YEAR: 2006
EXTT0=
EXTT1=
EXTT2=
EXTT3=
EXTT4=
EXTT5=
EXTT6=
EXTT7=
EXTT8=
EXTT9=
EXTT10=
PLAYORDER=
